<?xml version="1.0" encoding="UTF-8"?>
<!DOCTYPE svg PUBLIC "-//W3C//DTD SVG 1.1//EN" "http://www.w3.org/Graphics/SVG/1.1/DTD/svg11.dtd">
<svg xmlns="http://www.w3.org/2000/svg" version="1.1" width="150px" height="150px" style="shape-rendering:geometricPrecision; text-rendering:geometricPrecision; image-rendering:optimizeQuality; fill-rule:evenodd; clip-rule:evenodd" xmlns:xlink="http://www.w3.org/1999/xlink">
<g><path style="opacity:0.1" fill="#ffffff" d="M -0.5,-0.5 C 49.5,-0.5 99.5,-0.5 149.5,-0.5C 149.5,0.5 149.5,1.5 149.5,2.5C 133.5,2.5 117.5,2.5 101.5,2.5C 101.5,17.8333 101.5,33.1667 101.5,48.5C 117.5,48.5 133.5,48.5 149.5,48.5C 149.5,49.5 149.5,50.5 149.5,51.5C 133.5,51.5 117.5,51.5 101.5,51.5C 101.5,67.1667 101.5,82.8333 101.5,98.5C 117.5,98.5 133.5,98.5 149.5,98.5C 149.5,99.5 149.5,100.5 149.5,101.5C 133.5,101.5 117.5,101.5 101.5,101.5C 101.5,117.5 101.5,133.5 101.5,149.5C 100.5,149.5 99.5,149.5 98.5,149.5C 98.5,133.5 98.5,117.5 98.5,101.5C 82.8333,101.5 67.1667,101.5 51.5,101.5C 51.5,117.5 51.5,133.5 51.5,149.5C 50.5,149.5 49.5,149.5 48.5,149.5C 48.5,133.5 48.5,117.5 48.5,101.5C 33.1667,101.5 17.8333,101.5 2.5,101.5C 2.5,117.5 2.5,133.5 2.5,149.5C 1.5,149.5 0.5,149.5 -0.5,149.5C -0.5,99.5 -0.5,49.5 -0.5,-0.5 Z M 2.5,2.5 C 17.8333,2.5 33.1667,2.5 48.5,2.5C 48.5,17.8333 48.5,33.1667 48.5,48.5C 33.1667,48.5 17.8333,48.5 2.5,48.5C 2.5,33.1667 2.5,17.8333 2.5,2.5 Z M 51.5,2.5 C 67.1667,2.5 82.8333,2.5 98.5,2.5C 98.5,17.8333 98.5,33.1667 98.5,48.5C 82.8333,48.5 67.1667,48.5 51.5,48.5C 51.5,33.1667 51.5,17.8333 51.5,2.5 Z M 2.5,51.5 C 17.8333,51.5 33.1667,51.5 48.5,51.5C 48.5,67.1667 48.5,82.8333 48.5,98.5C 33.1667,98.5 17.8333,98.5 2.5,98.5C 2.5,82.8333 2.5,67.1667 2.5,51.5 Z M 51.5,51.5 C 67.1667,51.5 82.8333,51.5 98.5,51.5C 98.5,67.1667 98.5,82.8333 98.5,98.5C 82.8333,98.5 67.1667,98.5 51.5,98.5C 51.5,82.8333 51.5,67.1667 51.5,51.5 Z"/></g>
</svg>
